#N canvas 80 125 1366 685 12;
#X msg 79 45 devices;
#X floatatom 117 130 5 0 0 0 - - - 0;
#X obj 449 347 hsl 128 15 0 1 0 0 empty empty empty -2 -8 0 10 #fcfcfc
#000000 #000000 0 1;
#X obj 271 353 osc~;
#X obj 257 387 *~;
#X obj 244 465 dac~;
#X msg 65 230 0;
#X msg 112 230 264;
#X msg 156 231 297;
#X msg 200 234 330;
#X msg 240 235 352;
#X msg 285 234 396;
#X msg 336 236 440;
#X msg 381 238 495;
#X msg 436 238 528;
#X obj 157 157 select 65 66 67 68 69 70 71 72;
#X msg 143 47 open 14;
#X msg 230 51 close 14;
#X obj 116 93 comport 14 9600;
#X text 348 17 Piano Musical;
#X text 347 44 Autor: Danilo Di Fabio Bueno;
#X connect 0 0 18 0;
#X connect 1 0 15 0;
#X connect 2 0 4 1;
#X connect 3 0 4 0;
#X connect 4 0 5 0;
#X connect 4 0 5 1;
#X connect 6 0 3 0;
#X connect 7 0 3 0;
#X connect 8 0 3 0;
#X connect 9 0 3 0;
#X connect 10 0 3 0;
#X connect 11 0 3 0;
#X connect 12 0 3 0;
#X connect 13 0 3 0;
#X connect 14 0 3 0;
#X connect 15 0 6 0;
#X connect 15 1 7 0;
#X connect 15 2 8 0;
#X connect 15 3 9 0;
#X connect 15 4 10 0;
#X connect 15 5 11 0;
#X connect 15 6 12 0;
#X connect 15 7 13 0;
#X connect 15 8 14 0;
#X connect 16 0 18 0;
#X connect 17 0 18 0;
#X connect 18 0 1 0;
